<svg width="34" height="34" viewBox="0 0 34 34" fill="none" xmlns="http://www.w3.org/2000/svg">
<path d="M31.1422 34H2.85775C1.74674 34 0.84259 33.0961 0.84259 31.9848V2.01516C0.84259 0.903929 1.74674 0 2.85775 0H31.1422C32.2532 0 33.1574 0.903929 33.1574 2.01516V31.9848C33.1572 33.0958 32.2532 34 31.1422 34ZM2.85775 1.09914C2.3528 1.09914 1.94173 1.50999 1.94173 2.01516V31.9848C1.94173 32.4898 2.35258 32.9009 2.85775 32.9009H31.1422C31.6472 32.9009 32.0583 32.49 32.0583 31.9848V2.01516C32.0583 1.51021 31.6474 1.09914 31.1422 1.09914H2.85775ZM29.3836 30.556H24.7947C24.4911 30.556 24.2452 30.31 24.2452 30.0064V22.4956C24.2452 22.192 24.4911 21.946 24.7947 21.946H29.3836C29.6872 21.946 29.9332 22.192 29.9332 22.4956V30.0064C29.9332 30.31 29.6872 30.556 29.3836 30.556ZM25.3443 29.4568H28.8341V23.0451H25.3443V29.4568ZM22.6422 30.556H18.0533C17.7497 30.556 17.5037 30.31 17.5037 30.0064V27.3685C17.5037 27.0649 17.7497 26.8189 18.0533 26.8189H22.6422C22.9458 26.8189 23.1918 27.0649 23.1918 27.3685V30.0064C23.1918 30.31 22.9458 30.556 22.6422 30.556ZM18.6029 29.4568H22.0926V27.918H18.6029V29.4568ZM15.9007 30.556H11.3119C11.0083 30.556 10.7623 30.31 10.7623 30.0064V27.3685C10.7623 27.0649 11.0083 26.8189 11.3119 26.8189H15.9007C16.2043 26.8189 16.4503 27.0649 16.4503 27.3685V30.0064C16.4503 30.31 16.2043 30.556 15.9007 30.556ZM11.8614 29.4568H15.3512V27.918H11.8614V29.4568ZM9.15953 30.556H4.57064C4.26706 30.556 4.02107 30.31 4.02107 30.0064V27.3685C4.02107 27.0649 4.26706 26.8189 4.57064 26.8189H9.15953C9.46311 26.8189 9.7091 27.0649 9.7091 27.3685V30.0064C9.7091 30.31 9.46311 30.556 9.15953 30.556ZM5.12021 29.4568H8.60996V27.918H5.12021V29.4568ZM22.6422 25.6466H18.0533C17.7497 25.6466 17.5037 25.4006 17.5037 25.097V22.4591C17.5037 22.1555 17.7497 21.9095 18.0533 21.9095H22.6422C22.9458 21.9095 23.1918 22.1555 23.1918 22.4591V25.097C23.1918 25.4004 22.9458 25.6466 22.6422 25.6466ZM18.6029 24.5474H22.0926V23.0086H18.6029V24.5474ZM15.9007 25.6466H11.3119C11.0083 25.6466 10.7623 25.4006 10.7623 25.097V22.4591C10.7623 22.1555 11.0083 21.9095 11.3119 21.9095H15.9007C16.2043 21.9095 16.4503 22.1555 16.4503 22.4591V25.097C16.4503 25.4004 16.2043 25.6466 15.9007 25.6466ZM11.8614 24.5474H15.3512V23.0086H11.8614V24.5474ZM9.15953 25.6466H4.57064C4.26706 25.6466 4.02107 25.4006 4.02107 25.097V22.4591C4.02107 22.1555 4.26706 21.9095 4.57064 21.9095H9.15953C9.46311 21.9095 9.7091 22.1555 9.7091 22.4591V25.097C9.7091 25.4004 9.46311 25.6466 9.15953 25.6466ZM5.12021 24.5474H8.60996V23.0086H5.12021V24.5474ZM29.3836 20.7369H24.7947C24.4911 20.7369 24.2452 20.491 24.2452 20.1874V17.5495C24.2452 17.2459 24.4911 16.9999 24.7947 16.9999H29.3836C29.6872 16.9999 29.9332 17.2459 29.9332 17.5495V20.1874C29.9332 20.491 29.6872 20.7369 29.3836 20.7369ZM25.3443 19.6378H28.8341V18.099H25.3443V19.6378ZM22.6422 20.7369H18.0533C17.7497 20.7369 17.5037 20.491 17.5037 20.1874V17.5495C17.5037 17.2459 17.7497 16.9999 18.0533 16.9999H22.6422C22.9458 16.9999 23.1918 17.2459 23.1918 17.5495V20.1874C23.1918 20.491 22.9458 20.7369 22.6422 20.7369ZM18.6029 19.6378H22.0926V18.099H18.6029V19.6378ZM15.9007 20.7369H11.3119C11.0083 20.7369 10.7623 20.491 10.7623 20.1874V17.5495C10.7623 17.2459 11.0083 16.9999 11.3119 16.9999H15.9007C16.2043 16.9999 16.4503 17.2459 16.4503 17.5495V20.1874C16.4503 20.491 16.2043 20.7369 15.9007 20.7369ZM11.8614 19.6378H15.3512V18.099H11.8614V19.6378ZM9.15953 20.7369H4.57064C4.26706 20.7369 4.02107 20.491 4.02107 20.1874V17.5495C4.02107 17.2459 4.26706 16.9999 4.57064 16.9999H9.15953C9.46311 16.9999 9.7091 17.2459 9.7091 17.5495V20.1874C9.7091 20.491 9.46311 20.7369 9.15953 20.7369ZM5.12021 19.6378H8.60996V18.099H5.12021V19.6378ZM29.3836 15.8276H24.7947C24.4911 15.8276 24.2452 15.5816 24.2452 15.278V12.6401C24.2452 12.3365 24.4911 12.0905 24.7947 12.0905H29.3836C29.6872 12.0905 29.9332 12.3365 29.9332 12.6401V15.278C29.9332 15.5816 29.6872 15.8276 29.3836 15.8276ZM25.3443 14.7284H28.8341V13.1896H25.3443V14.7284ZM22.6422 15.8276H18.0533C17.7497 15.8276 17.5037 15.5816 17.5037 15.278V12.6401C17.5037 12.3365 17.7497 12.0905 18.0533 12.0905H22.6422C22.9458 12.0905 23.1918 12.3365 23.1918 12.6401V15.278C23.1918 15.5816 22.9458 15.8276 22.6422 15.8276ZM18.6029 14.7284H22.0926V13.1896H18.6029V14.7284ZM15.9007 15.8276H11.3119C11.0083 15.8276 10.7623 15.5816 10.7623 15.278V12.6401C10.7623 12.3365 11.0083 12.0905 11.3119 12.0905H15.9007C16.2043 12.0905 16.4503 12.3365 16.4503 12.6401V15.278C16.4503 15.5816 16.2043 15.8276 15.9007 15.8276ZM11.8614 14.7284H15.3512V13.1896H11.8614V14.7284ZM9.15953 15.8276H4.57064C4.26706 15.8276 4.02107 15.5816 4.02107 15.278V12.6401C4.02107 12.3365 4.26706 12.0905 4.57064 12.0905H9.15953C9.46311 12.0905 9.7091 12.3365 9.7091 12.6401V15.278C9.7091 15.5816 9.46311 15.8276 9.15953 15.8276ZM5.12021 14.7284H8.60996V13.1896H5.12021V14.7284ZM29.3836 9.85551H4.57064C4.26706 9.85551 4.02107 9.60952 4.02107 9.30594V3.64539C4.02107 3.34181 4.26706 3.09583 4.57064 3.09583H29.3836C29.6872 3.09583 29.9332 3.34181 29.9332 3.64539V9.30594C29.9332 9.60952 29.6872 9.85551 29.3836 9.85551ZM5.12021 8.75637H28.8341V4.19496H5.12021V8.75637Z" fill="#E13838"/>
</svg>
