<svg width="30" height="38" viewBox="0 0 30 38" fill="none" xmlns="http://www.w3.org/2000/svg">
<path d="M22.8551 38H1.19034C0.904613 38 0.673096 37.7685 0.673096 37.4828V0.51724C0.673096 0.231517 0.904613 0 1.19034 0H28.8093C29.095 0 29.3266 0.231517 29.3266 0.51724V31.5283C29.3266 31.6655 29.2719 31.797 29.1751 31.8941L23.2208 37.8483C23.1238 37.9454 22.9922 38 22.8551 38ZM1.70758 36.9655H22.3331V31.5285C22.3331 31.2428 22.5646 31.0113 22.8503 31.0113H28.2921V1.03448H1.70758V36.9655ZM23.3677 32.0455V36.2385L27.5609 32.0455H23.3677ZM25.884 28.7586H4.11606C3.83033 28.7586 3.59881 28.5271 3.59881 28.2413C3.59881 27.9556 3.83033 27.7241 4.11606 27.7241H25.884C26.1697 27.7241 26.4013 27.9556 26.4013 28.2413C26.4013 28.5271 26.1697 28.7586 25.884 28.7586ZM25.884 25.7551H4.11606C3.83033 25.7551 3.59881 25.5235 3.59881 25.2378C3.59881 24.9521 3.83033 24.7206 4.11606 24.7206H25.884C26.1697 24.7206 26.4013 24.9521 26.4013 25.2378C26.4013 25.5235 26.1697 25.7551 25.884 25.7551ZM25.884 22.7518H4.11606C3.83033 22.7518 3.59881 22.5202 3.59881 22.2345C3.59881 21.9488 3.83033 21.7173 4.11606 21.7173H25.884C26.1697 21.7173 26.4013 21.9488 26.4013 22.2345C26.4013 22.5202 26.1697 22.7518 25.884 22.7518ZM25.884 19.7482H4.11606C3.83033 19.7482 3.59881 19.5167 3.59881 19.231C3.59881 18.9453 3.83033 18.7138 4.11606 18.7138H25.884C26.1697 18.7138 26.4013 18.9453 26.4013 19.231C26.4013 19.5167 26.1697 19.7482 25.884 19.7482ZM25.884 16.7449H4.11606C3.83033 16.7449 3.59881 16.5134 3.59881 16.2277C3.59881 15.942 3.83033 15.7105 4.11606 15.7105H25.884C26.1697 15.7105 26.4013 15.942 26.4013 16.2277C26.4013 16.5134 26.1697 16.7449 25.884 16.7449ZM25.884 13.7414H4.11606C3.83033 13.7414 3.59881 13.5099 3.59881 13.2242C3.59881 12.9385 3.83033 12.7069 4.11606 12.7069H25.884C26.1697 12.7069 26.4013 12.9385 26.4013 13.2242C26.4013 13.5099 26.1697 13.7414 25.884 13.7414ZM17.3044 10.2759H12.6956C12.4099 10.2759 12.1784 10.0444 12.1784 9.75867V7.27302H11.5234C11.3074 7.27302 11.1141 7.13895 11.0386 6.93661C10.9633 6.73406 11.0214 6.50626 11.1847 6.36495L14.6613 3.35399C14.8556 3.18579 15.1442 3.18579 15.3385 3.35399L18.8152 6.36495C18.9784 6.50626 19.0366 6.73426 18.9613 6.93661C18.8858 7.13895 18.6925 7.27302 18.4765 7.27302H17.8217V9.75846C17.8217 10.0442 17.5902 10.2759 17.3044 10.2759ZM13.2129 9.24143H16.7872V6.75578C16.7872 6.53295 16.9283 6.34302 17.1259 6.2702L15 4.42903L12.8744 6.26999C13.072 6.34282 13.2131 6.53275 13.2131 6.75557V9.24143H13.2129Z" fill="#E13838"/>
</svg>
