<svg width="40" height="28" viewBox="0 0 40 28" fill="none" xmlns="http://www.w3.org/2000/svg">
<path d="M32.4388 27.6069C30.6569 27.6069 29.1796 26.2765 28.9484 24.5569H12.2082C11.9757 26.2751 10.4992 27.6041 8.71816 27.6041C6.93714 27.6041 5.46061 26.2753 5.22816 24.5569H0.510204C0.228367 24.5569 0 24.3286 0 24.0467V0.903255C0 0.621418 0.228367 0.393051 0.510204 0.393051H25.102C25.3839 0.393051 25.6122 0.621418 25.6122 0.903255V10.5426H30.6122C30.8057 10.5426 30.9824 10.652 31.0688 10.8251L33.3188 15.3373L39.6424 17.3224C39.8551 17.3892 39.9998 17.5863 39.9998 17.8092V24.0467C39.9998 24.3286 39.7714 24.5569 39.4896 24.5569H35.929C35.698 26.2765 34.2208 27.6069 32.4388 27.6069ZM32.4388 21.5837C31.0594 21.5837 29.9373 22.7059 29.9373 24.0851C29.9373 25.4643 31.0596 26.5865 32.4388 26.5865C33.8035 26.5865 34.9163 25.4882 34.9398 24.129C34.9357 24.1041 34.9333 24.0786 34.9331 24.0524C34.9222 23.1237 34.4024 22.2822 33.5765 21.8563C33.2233 21.6757 32.8402 21.5837 32.4388 21.5837ZM6.24673 23.6937C6.22694 23.8204 6.21673 23.95 6.21673 24.082C6.21673 25.4614 7.33898 26.5835 8.71816 26.5835C10.0896 26.5835 11.2065 25.4743 11.2196 24.1059C11.2176 24.0884 11.2163 24.0706 11.2161 24.0524C11.2002 22.6898 10.0794 21.581 8.71755 21.5804C7.47551 21.581 6.4349 22.5002 6.24673 23.6937ZM35.9182 23.5365H38.9796V18.1837L32.8063 16.2459C32.6741 16.2043 32.5643 16.1108 32.5024 15.9867L30.2963 11.5628H25.6122V23.5363H28.9557C29.2202 21.8553 30.6861 20.56 32.4335 20.56C32.9931 20.56 33.55 20.6947 34.0441 20.9494C35.0578 21.469 35.7455 22.4328 35.9182 23.5365ZM12.1978 23.5365H24.5918V1.41346H1.02041V23.5365H5.23857C5.4851 21.9582 6.78408 20.7235 8.39245 20.5751C8.49918 20.5653 8.60735 20.5602 8.71633 20.5602C8.71653 20.5602 8.71673 20.5602 8.71694 20.5602C8.71796 20.5602 8.71857 20.5602 8.71959 20.5602C8.7198 20.5602 8.7198 20.5602 8.7198 20.5602C10.4686 20.562 11.9335 21.8567 12.1978 23.5365ZM17.432 18.06H8.1802C7.89837 18.06 7.67 17.8316 7.67 17.5498V11.5294H6.77531C6.56653 11.5294 6.37878 11.402 6.30143 11.2082C6.22408 11.0143 6.27265 10.7926 6.42429 10.649L12.4551 4.93101C12.652 4.74448 12.9604 4.74448 13.1571 4.93101L19.188 10.649C19.3394 10.7926 19.3882 11.0143 19.3108 11.2082C19.2335 11.4022 19.0457 11.5294 18.8369 11.5294H17.9422V17.5498C17.9422 17.8314 17.7139 18.06 17.432 18.06ZM8.69041 17.0396H16.9216V11.5294H8.69041V17.0396ZM17.432 10.509H17.5573L12.8061 6.00428L8.0551 10.509H17.432Z" fill="#E13838"/>
</svg>
