<svg width="33" height="35" viewBox="0 0 33 35" fill="none" xmlns="http://www.w3.org/2000/svg">
<path d="M6.03888 35C5.91918 35 5.79948 34.9544 5.70821 34.8631L0.887947 30.043C0.705401 29.8603 0.705401 29.5644 0.887947 29.3819L19.9943 10.2753L18.4584 8.7394C17.6786 7.95965 17.2492 6.92292 17.2492 5.82035C17.2492 4.71778 17.6786 3.68105 18.4584 2.90149L20.1527 1.20714C21.7623 -0.402295 24.3814 -0.402108 25.9908 1.20714L31.0417 6.25801C32.6513 7.86745 32.6513 10.4865 31.0417 12.0963L29.3473 13.7905C27.7379 15.4001 25.1189 15.4001 23.5092 13.7906L21.9733 12.2545L7.71584 26.5122L8.60893 27.4051C8.61042 27.4066 8.61192 27.4081 8.61323 27.4094C8.61473 27.4109 8.61622 27.4124 8.61753 27.4137L10.8876 29.6837C10.9753 29.7715 11.0245 29.8902 11.0245 30.0144C11.0245 30.1386 10.9753 30.2574 10.8876 30.3451L9.47565 31.757C9.2931 31.9398 8.99684 31.9398 8.81448 31.757L8.29789 31.2404L7.05317 32.4853L7.56958 33.0019C7.6573 33.0896 7.70649 33.2084 7.70649 33.3326C7.70649 33.4568 7.65711 33.5756 7.56958 33.6633L6.36937 34.8633C6.2781 34.9544 6.1584 35 6.03888 35ZM4.42571 32.2581L6.03888 33.8713L6.57773 33.3324L6.06133 32.8158C5.8786 32.6331 5.8786 32.3372 6.06133 32.1547L7.96721 30.2486C8.14265 30.0731 8.45313 30.0731 8.62857 30.2486L9.14516 30.7652L9.89573 30.0144L8.28255 28.4014L4.42571 32.2581ZM1.87998 29.7124L3.76454 31.5969L7.62139 27.7401L6.72399 26.8427C6.63627 26.755 6.58708 26.6362 6.58708 26.512C6.58708 26.3878 6.63627 26.269 6.72399 26.1813L21.643 11.2623C21.8184 11.0869 22.1289 11.0869 22.3042 11.2623L24.1708 13.1289C25.4161 14.3738 27.4416 14.3736 28.6865 13.1287L30.3809 11.4346C31.6258 10.1895 31.6258 8.16371 30.3809 6.91862L25.3296 1.86831C24.0847 0.623591 22.0592 0.623403 20.8139 1.86831L19.1195 3.56265C18.5165 4.16584 18.1844 4.96766 18.1844 5.82035C18.1844 6.67342 18.5165 7.47523 19.1195 8.07823L20.986 9.94465C21.0737 10.0324 21.1229 10.1511 21.1229 10.2753C21.1229 10.3995 21.0737 10.5183 20.986 10.606L1.87998 29.7124ZM26.2938 13.0896C25.5941 13.0896 24.9365 12.8171 24.4416 12.3222L19.9266 7.80703C19.4319 7.31233 19.1594 6.65471 19.1594 5.95502C19.1594 5.25551 19.4319 4.5977 19.9266 4.103L21.3546 2.67499C21.8493 2.18009 22.5071 1.90758 23.2066 1.90758C23.9061 1.90758 24.5641 2.18009 25.0588 2.67499L29.5738 7.19019C30.0686 7.6849 30.3411 8.34251 30.3411 9.04221C30.3411 9.74191 30.0686 10.3997 29.5738 10.8942L28.1458 12.3222C27.6511 12.8171 26.9933 13.0896 26.2938 13.0896ZM23.2066 2.84294C22.7568 2.84294 22.3339 3.0182 22.0158 3.33634L20.5878 4.76435C20.2696 5.0825 20.0945 5.50538 20.0945 5.9552C20.0945 6.40502 20.2698 6.82791 20.5878 7.14605L25.103 11.6613C25.4211 11.9794 25.8438 12.1547 26.2938 12.1547C26.7438 12.1547 27.1665 11.9794 27.4847 11.6613L28.9127 10.2332C29.2308 9.9151 29.4059 9.49222 29.4059 9.0424C29.4059 8.59258 29.2306 8.16969 28.9127 7.85155L24.3977 3.33634C24.0793 3.01801 23.6564 2.84294 23.2066 2.84294Z" fill="#E13838"/>
</svg>
