<svg width="47" height="47" viewBox="0 0 47 47" fill="none" xmlns="http://www.w3.org/2000/svg">
<g clip-path="url(#clip0)">
<path d="M6.98275 47.0002C6.9607 47.0002 6.93837 46.9993 6.91633 46.997L5.16461 46.8358C4.99582 46.8204 4.83805 46.7461 4.71827 46.6264L1.11478 43.0229C1.11188 43.02 1.10898 43.0171 1.10637 43.0145C1.10376 43.0118 1.10057 43.0087 1.09796 43.006L0.571861 42.4799C0.41844 42.3265 0.341875 42.1125 0.362757 41.8964L0.693089 38.5261C0.70962 38.3591 0.783285 38.2027 0.902193 38.0841L20.3097 18.6766C18.2883 13.5969 19.4533 7.88177 23.3439 3.99145C28.6649 -1.32983 37.3226 -1.32983 42.6436 3.99145C45.2213 6.56885 46.6409 9.99601 46.6409 13.6413C46.6409 17.2865 45.2213 20.7137 42.6436 23.2911C38.7532 27.182 33.0381 28.347 27.9584 26.3253L25.4341 28.8496C25.2981 28.9856 25.1139 29.0619 24.9213 29.0619H23.4385V30.5445C23.4385 30.7368 23.3622 30.9212 23.2262 31.0572L21.1795 33.1039C21.0435 33.2399 20.8593 33.3162 20.6667 33.3162H19.6351V34.3478C19.6351 34.5401 19.5589 34.7245 19.4228 34.8606L17.2152 37.0682C17.0792 37.2042 16.895 37.2805 16.7025 37.2805H13.4148V40.5681C13.4148 40.7604 13.3385 40.9449 13.2025 41.0809L12.574 41.7094C12.438 41.8454 12.2539 41.9217 12.0613 41.9217H10.9009V43.082C10.9009 43.2743 10.8246 43.4588 10.6886 43.5948L7.4955 46.7882C7.3589 46.9242 7.17416 47.0002 6.98275 47.0002ZM5.55846 45.4158L6.71071 45.522L9.4511 42.7816V41.1966C9.4511 40.7961 9.77564 40.4716 10.1762 40.4716H11.7611L11.965 40.2677V36.5554C11.965 36.1549 12.2895 35.8304 12.69 35.8304H16.4023L18.1853 34.0473V32.5912C18.1853 32.1906 18.5099 31.8661 18.9104 31.8661H20.3666L21.9884 30.2443V28.3369C21.9884 27.9363 22.3129 27.6118 22.7134 27.6118H24.6209L27.2769 24.9558C27.4883 24.7444 27.8082 24.6843 28.0814 24.8047C32.7217 26.8456 38.0354 25.8488 41.6181 22.2656C43.9217 19.962 45.1905 16.8991 45.1905 13.641C45.1905 10.3829 43.9217 7.32029 41.6181 5.01638C36.8626 0.261215 29.1246 0.260926 24.3688 5.01638C20.7859 8.59928 19.7894 13.9127 21.8297 18.5533C21.9501 18.8271 21.89 19.1464 21.6786 19.3578L2.111 38.9258L1.88739 41.2079L22.4266 20.6687C22.7096 20.3854 23.169 20.3854 23.4518 20.6687C23.7351 20.9518 23.7351 21.4109 23.4518 21.694L2.64434 42.5014L5.55846 45.4158ZM37.4426 12.3782C36.5914 12.3782 35.7916 12.0467 35.1895 11.445C34.5877 10.8432 34.2562 10.0433 34.2562 9.19179C34.2562 8.34058 34.5877 7.54071 35.1895 6.93863C35.7913 6.33655 36.5914 6.00534 37.4426 6.00534C38.2938 6.00534 39.094 6.33684 39.6958 6.93863C40.2976 7.54042 40.6291 8.34058 40.6291 9.19179C40.6291 10.043 40.2976 10.8432 39.6958 11.445C39.0937 12.0467 38.2938 12.3782 37.4426 12.3782ZM37.4426 7.45573C36.9789 7.45573 36.5427 7.63641 36.215 7.96414C35.8873 8.29186 35.7066 8.72805 35.7066 9.19179C35.7066 9.65553 35.8873 10.0917 36.215 10.4194C36.543 10.7475 36.9789 10.9281 37.4426 10.9281C37.9064 10.9281 38.3426 10.7475 38.6703 10.4197C38.9983 10.0917 39.179 9.65582 39.179 9.19208C39.179 8.72834 38.9983 8.29215 38.6706 7.96443C38.3429 7.6367 37.9064 7.45573 37.4426 7.45573Z" fill="#E13838"/>
</g>
<defs>
<clipPath id="clip0">
<rect width="47" height="47" fill="white"/>
</clipPath>
</defs>
</svg>
