<svg width="55" height="55" viewBox="0 0 55 55" fill="none" xmlns="http://www.w3.org/2000/svg">
<g clip-path="url(#clip0)">
<path d="M35.3168 40.512H39.7294C40.1358 38.1941 42.1726 36.4196 44.596 36.4196C45.3812 36.4196 46.1627 36.6085 46.8562 36.966C46.8563 36.966 46.8564 36.9661 46.8564 36.9661L35.3168 40.512ZM35.3168 40.512V24.2485H41.5956L35.3168 40.512ZM47.933 41.3225C47.9333 41.3608 47.9366 41.398 47.9421 41.4338C47.9062 43.2443 46.4222 44.7061 44.6033 44.7061C42.7622 44.7061 41.2639 43.2077 41.2639 41.3666C41.2639 39.5254 42.7619 38.0271 44.6033 38.0271C45.1395 38.0271 45.6505 38.1499 46.1219 38.3909C47.2246 38.9595 47.9184 40.0826 47.933 41.3225ZM47.933 41.3225L48.033 41.3217L47.933 41.3229C47.933 41.3227 47.933 41.3226 47.933 41.3225ZM15.3222 41.3228C15.3225 41.3493 15.3241 41.3751 15.3269 41.4003C15.3062 43.2242 13.8163 44.7018 11.9875 44.7018C10.1463 44.7018 8.64801 43.2038 8.64801 41.3624C8.64801 41.186 8.66163 41.0131 8.68804 40.844C8.93923 39.2507 10.3289 38.0235 11.9866 38.0226C13.8043 38.0235 15.3009 39.5039 15.3222 41.3228ZM15.3222 41.3228L15.4222 41.3217M15.3222 41.3228C15.3222 41.3228 15.3222 41.3228 15.3222 41.3229L15.4222 41.3217M15.4222 41.3217C15.4225 41.3467 15.4241 41.3711 15.4269 41.3952L11.9866 37.9226C13.8592 37.9235 15.4003 39.448 15.4222 41.3217ZM35.3168 22.6457V9.49157C35.3168 9.04882 34.9581 8.69004 34.5153 8.69004H0.701531C0.258777 8.69004 -0.1 9.04882 -0.1 9.49157V41.3138C-0.1 41.7566 0.258776 42.1154 0.701531 42.1154H7.10213C7.46565 44.4849 9.5178 46.3052 11.9875 46.3052C14.4572 46.3052 16.5093 44.4846 16.8728 42.1154H39.7173C40.0792 44.4866 42.1325 46.3091 44.6033 46.3091C47.0744 46.3091 49.1274 44.4866 49.489 42.1154H54.2982C54.7409 42.1154 55.0997 41.7566 55.0997 41.3138V32.7372C55.0997 32.3871 54.8724 32.0774 54.5383 31.9725L45.8838 29.2558L42.8091 23.0895L42.7196 23.1341L42.8091 23.0895C42.6734 22.8176 42.3958 22.6457 42.0918 22.6457H35.3168ZM11.5305 36.4408L11.5304 36.4408C9.30181 36.6464 7.49683 38.3377 7.1182 40.5123H1.50306V10.2931H33.7138V40.5123H16.8567C16.4505 38.196 14.415 36.4224 11.9898 36.4199H11.9897H11.9897H11.9897H11.9897H11.9897H11.9896H11.9896H11.9896H11.9896H11.9896H11.9896H11.9896H11.9895H11.9895H11.9895H11.9895H11.9895H11.9895H11.9894H11.9894H11.9894H11.9894H11.9894H11.9894H11.9893H11.9893H11.9893H11.9893H11.9893H11.9893H11.9892H11.9892H11.9892H11.9892H11.9892H11.9892H11.9892H11.9891H11.9891H11.9891H11.9891H11.9891H11.9891H11.989H11.989H11.989H11.989H11.989H11.989H11.989H11.9889H11.9889H11.9889H11.9889H11.9889H11.9888H11.9888H11.9888H11.9888H11.9888H11.9887H11.9887H11.9887H11.9887H11.9886H11.9886H11.9886H11.9886H11.9886H11.9885H11.9885H11.9885H11.9885H11.9885H11.9884H11.9884H11.9884H11.9884H11.9884H11.9883H11.9883H11.9883H11.9883H11.9882H11.9882H11.9882H11.9882H11.9882H11.9881H11.9881H11.9881H11.9881H11.9881H11.988H11.988H11.988H11.988H11.988H11.9879H11.9879H11.9879H11.9879H11.9879H11.9878H11.9878H11.9878H11.9878H11.9878H11.9877H11.9877H11.9877H11.9877H11.9877H11.9876H11.9876H11.9876H11.9876H11.9876H11.9876H11.9875H11.9875H11.9875H11.9875H11.9875H11.9874H11.9874H11.9874H11.9874H11.9874H11.9873H11.9873H11.9873H11.9873H11.9873H11.9872H11.9872H11.9872H11.9872H11.9872H11.9871H11.9871H11.9871H11.9871H11.9871H11.987H11.987H11.987H11.987H11.9869H11.9869H11.9869H11.9869H11.9869H11.9868H11.9868H11.9868H11.9868H11.9868H11.9867H11.9867H11.9867H11.9867H11.9867H11.9866H11.9866H11.9866H11.9866H11.9866H11.9865H11.9865H11.9865H11.9865H11.9864H11.9864H11.9864H11.9864H11.9864H11.9863H11.9863H11.9863H11.9863H11.9863H11.9863H11.9862H11.9862H11.9862H11.9862H11.9862H11.9862H11.9861H11.9861H11.9861H11.9861H11.9861H11.9861H11.9861H11.986H11.986H11.986H11.986H11.986H11.986H11.9859H11.9859H11.9859H11.9859H11.9859H11.9859H11.9858H11.9858H11.9858H11.9858H11.9858H11.9858H11.9857H11.9857H11.9857H11.9857H11.9857H11.9857H11.9857H11.9856H11.9856H11.9856H11.9856H11.9856H11.9856H11.9855H11.9855H11.9855H11.9855H11.9855H11.9855H11.9854H11.9854H11.9854H11.9854H11.9854H11.9854H11.9853H11.9853H11.9853H11.9853H11.9853H11.9853H11.9853H11.9852H11.9852H11.9852H11.9852H11.9852H11.9852H11.9851H11.9851H11.9851H11.9851H11.9851H11.9851H11.985H11.985H11.985H11.985H11.985H11.985H11.9849C11.832 36.4199 11.6802 36.427 11.5305 36.4408ZM10.4462 24.2025V32.3805C10.4462 32.8233 10.805 33.1821 11.2478 33.1821H23.9691C24.4118 33.1821 24.7706 32.823 24.7706 32.3805V24.2025H25.9008C26.2288 24.2025 26.5237 24.0028 26.6453 23.6979C26.7668 23.3932 26.6901 23.0451 26.4523 22.8194L26.4522 22.8194L18.1599 14.9572C17.8508 14.6641 17.3663 14.6641 17.057 14.9571L17.057 14.9572L8.76461 22.8193C8.76461 22.8193 8.7646 22.8194 8.76459 22.8194C8.52636 23.0451 8.45008 23.3933 8.57158 23.6979C8.69309 24.0024 8.98803 24.2025 9.31605 24.2025H10.4462ZM23.1672 24.2025V31.579H12.0493V24.2025H23.1672ZM11.3266 22.5994L17.6084 16.6433L23.8905 22.5994H11.3266Z" fill="#E13838" stroke="#E13838" stroke-width="0.2"/>
</g>
<defs>
<clipPath id="clip0">
<rect width="55" height="55" fill="white"/>
</clipPath>
</defs>
</svg>
