<svg width="57" height="57" viewBox="0 0 57 57" fill="none" xmlns="http://www.w3.org/2000/svg">
<g clip-path="url(#clip0)">
<path d="M43.7982 55.7101L43.7983 55.7102C43.9198 56.0451 44.2359 56.253 44.5722 56.253C44.6657 56.253 44.7601 56.2368 44.8524 56.2038L44.8527 56.2036C45.28 56.0486 45.5009 55.5768 45.3462 55.1495L38.9411 37.4635H41.1432C41.5979 37.4635 41.9663 37.0951 41.9663 36.6405C41.9663 36.1858 41.5979 35.8174 41.1432 35.8174H38.3449L32.6023 19.9615C33.4902 19.0415 34.037 17.7903 34.037 16.4135C34.037 13.8743 32.1764 11.7615 29.7467 11.3667V10.0058H30.4782C30.9329 10.0058 31.3013 9.63739 31.3013 9.18275V0.723051C31.3013 0.268409 30.9329 -0.1 30.4782 -0.1H27.3691C26.9145 -0.1 26.5461 0.268409 26.5461 0.723051V9.18275C26.5461 9.63739 26.9145 10.0058 27.3691 10.0058H28.1006V11.3668C25.6712 11.7615 23.8106 13.8743 23.8106 16.4135C23.8106 17.79 24.3574 19.0415 25.2451 19.9615L19.5025 35.8177H16.7041C16.2495 35.8177 15.8811 36.1861 15.8811 36.6408C15.8811 37.0954 16.2495 37.4638 16.7041 37.4638H18.9062L12.5011 55.1498C12.3464 55.577 12.5672 56.0491 12.9945 56.2039C13.4215 56.3591 13.8938 56.1373 14.0488 55.7102L14.0488 55.7101L20.657 37.4638H28.1006V39.9306C28.1006 40.3853 28.469 40.7537 28.9237 40.7537C29.3783 40.7537 29.7467 40.3853 29.7467 39.9306V37.4638H37.19L43.7982 55.7101ZM26.626 20.9808C27.3172 21.3301 28.0978 21.5266 28.9234 21.5266C29.749 21.5266 30.5296 21.3298 31.2207 20.9811L36.5944 35.8177H29.7464V33.3506C29.7464 32.8959 29.378 32.5275 28.9234 32.5275C28.4687 32.5275 28.1003 32.8959 28.1003 33.3506V35.8174H21.2527L26.626 20.9808ZM25.4567 16.4135C25.4567 14.5021 27.0119 12.9466 28.9237 12.9466C30.8351 12.9466 32.3909 14.5021 32.3909 16.4135C32.3909 18.325 30.8354 19.8805 28.9237 19.8805C27.0119 19.8805 25.4567 18.3253 25.4567 16.4135ZM29.6552 1.5461V8.3597H28.9237H28.1922V1.5461H29.6552Z" fill="#E13838" stroke="#E13838" stroke-width="0.2"/>
</g>
<defs>
<clipPath id="clip0">
<rect x="0.846985" width="56.153" height="56.153" fill="white"/>
</clipPath>
</defs>
</svg>
