<svg width="55" height="56" viewBox="0 0 55 56" fill="none" xmlns="http://www.w3.org/2000/svg">
<g clip-path="url(#clip0)">
<path d="M7.90192 54.0651L7.87384 54.1065C6.66762 53.2875 5.85292 52.0478 5.57925 50.6162L7.90192 54.0651ZM7.90192 54.0651L7.87384 54.1065L8.70165 54.6684C9.12341 54.9551 9.6155 55.1066 10.1242 55.1066C10.702 55.1066 11.2531 54.911 11.6948 54.5629L7.90192 54.0651ZM32.3583 18.0491L32.3302 18.0905C31.124 17.2715 30.3093 16.0318 30.0356 14.6002C29.7616 13.1683 30.0621 11.7155 30.8811 10.5095L36.007 2.96045L36.007 2.96043C37.025 1.46251 38.7142 0.568164 40.527 0.568164C41.6215 0.568164 42.6801 0.89428 43.5885 1.51107L44.4161 2.07297C45.3517 2.7084 45.7281 3.86368 45.4221 4.894C46.7152 5.89623 47.6523 7.24679 48.1493 8.83015C48.5489 9.67532 53.4019 20.7704 42.0534 37.4825C31.0104 53.7452 18.0648 55.48 16.6168 55.6248L16.6155 55.6249L16.6154 55.6249L16.6153 55.6249L16.6151 55.6249L16.6149 55.6249L16.6119 55.6253V55.6252L16.6116 55.6252L16.6015 55.6262L16.5912 55.6272L16.5877 55.6276L16.5863 55.6277H16.5863C16.5244 55.6336 16.4791 55.6373 16.4491 55.6396L16.4155 55.642L16.4071 55.6425L16.4054 55.6426L16.4049 55.6427L16.4044 55.6427L16.4042 55.6427L16.4041 55.6427L16.4013 55.5928C16.1963 55.6094 15.9759 55.6182 15.7598 55.6182C14.3164 55.6182 12.9194 55.2338 11.6906 54.5022L32.3583 18.0491ZM32.3583 18.0491L32.3302 18.0905L33.158 18.6524C33.58 18.9388 34.0718 19.0902 34.5805 19.0902C35.1584 19.0902 35.7094 18.8947 36.1512 18.5465C37.3063 19.2274 38.6075 19.6044 39.9556 19.6476C39.6955 21.8106 38.6553 27.8011 34.7669 33.5272C30.8619 39.2782 25.3806 42.8355 23.3793 44.0098C22.8439 42.785 22.0235 41.7306 20.9652 40.9103C21.2712 39.88 20.8948 38.7247 19.9592 38.0893L19.9311 38.1306L32.3583 18.0491ZM12.0286 52.9215L12.0289 52.9218L12.1354 52.9985C12.1356 52.9986 12.1357 52.9987 12.1359 52.9989C13.3527 53.825 14.8178 54.208 16.2952 54.0885L12.0286 52.9215ZM12.0286 52.9215C11.8964 52.828 11.739 52.7788 11.5789 52.7788C11.5326 52.7788 11.4864 52.7828 11.4401 52.7905L11.4394 52.7907C11.2337 52.828 11.0514 52.9468 10.934 53.1197L10.934 53.1197C10.752 53.3879 10.4491 53.548 10.1239 53.548C9.92865 53.548 9.73928 53.4898 9.57638 53.3791L9.57635 53.379L8.74852 52.8172C7.88675 52.2321 7.30471 51.3464 7.1092 50.3233C6.9137 49.3003 7.12815 48.2623 7.71351 47.4005L7.67215 47.3724L7.71351 47.4005L12.8395 39.8514C13.5664 38.781 14.7738 38.1422 16.0701 38.1422C16.8511 38.1422 17.6071 38.375 18.2566 38.8161L18.2847 38.7748L18.2566 38.8161L19.0842 39.3781L19.1123 39.3367L19.0842 39.3781C19.5302 39.6807 19.6465 40.2899 19.3439 40.7357C19.2264 40.9086 19.1834 41.1214 19.2245 41.3262C19.2656 41.5311 19.3868 41.7109 19.562 41.8253L19.5624 41.8256L19.6738 41.8968C19.674 41.897 19.6742 41.8971 19.6743 41.8972C20.9023 42.7311 21.7829 43.929 22.2213 45.3616C22.2886 45.582 22.4497 45.7608 22.6619 45.8509M12.0286 52.9215L22.2691 45.347C22.3321 45.5532 22.4828 45.7206 22.6814 45.8048M41.357 18.2894C41.1961 18.1331 40.9755 18.055 40.7521 18.0722L40.7518 18.0722C39.2739 18.1923 37.8094 17.8086 36.5925 16.9826C36.5924 16.9824 36.5922 16.9823 36.592 16.9822L36.4855 16.9057L36.4852 16.9055C36.3145 16.7846 36.1028 16.7375 35.8963 16.7749L35.8963 16.7749C35.6906 16.8123 35.5084 16.931 35.3909 17.1039L35.3909 17.104C35.2089 17.3722 34.906 17.5323 34.5808 17.5323C34.3856 17.5323 34.1962 17.4738 34.0333 17.3633C34.0333 17.3633 34.0333 17.3633 34.0332 17.3633L33.2054 16.8014C32.3437 16.2161 31.7616 15.3306 31.5661 14.3073C31.3706 13.2843 31.5851 12.2463 32.1704 11.3845L32.1291 11.3564L32.1704 11.3845L37.2964 3.83543C38.0233 2.76501 39.2308 2.12614 40.527 2.12614C41.308 2.12614 42.064 2.359 42.7133 2.79983L43.5408 3.36174L43.5689 3.32037L43.5408 3.36175C43.9868 3.66435 44.1031 4.27359 43.8005 4.71965L43.8418 4.74773L43.8005 4.71967C43.683 4.89288 43.64 5.10598 43.6811 5.31101L43.6811 5.31107C43.7226 5.51638 43.8447 5.69618 44.0202 5.81023L44.0205 5.81046L44.1304 5.88053C44.1306 5.88066 44.1308 5.88079 44.131 5.88093C45.3587 6.71512 46.2395 7.91269 46.6782 9.34507L46.6783 9.34528C46.6913 9.38724 46.7087 9.43028 46.7282 9.46943L46.7283 9.46948C46.7748 9.56229 51.9152 20.1866 40.7644 36.6076C30.1145 52.291 17.8197 53.9389 16.4614 54.0746L16.4116 54.0796L16.4116 54.0796C16.3715 54.0833 16.3433 54.0856 16.3282 54.0866L41.3222 18.3252M41.357 18.2894L41.3222 18.3252M41.357 18.2894C41.357 18.2894 41.357 18.2893 41.3569 18.2893L41.3222 18.3252M41.357 18.2894C41.5184 18.4455 41.6041 18.6636 41.5928 18.8876L41.5928 18.8877C41.576 19.2155 41.1326 26.9264 36.0562 34.4021C30.9896 41.8635 23.6322 45.6683 23.3197 45.8278C23.1147 45.9325 22.8735 45.9409 22.6619 45.8509M41.3222 18.3252C41.4732 18.4713 41.5534 18.6755 41.5429 18.8851C41.5263 19.2094 41.0836 26.9095 36.0149 34.374C30.9554 41.8249 23.6072 45.6249 23.297 45.7833C23.1051 45.8812 22.8794 45.8891 22.6814 45.8048M22.6619 45.8509L22.6814 45.8048M22.6619 45.8509C22.6618 45.8509 22.6618 45.8509 22.6618 45.8508L22.6814 45.8048" fill="#E13838" stroke="#E13838" stroke-width="0.1"/>
<path d="M35.3891 17.1069L35.3891 17.1069L43.8007 4.71971L35.3891 17.1069ZM35.3891 17.1069C35.1477 17.4627 35.2399 17.9472 35.596 18.189C35.7297 18.28 35.8824 18.3237 36.0329 18.3237C36.282 18.3237 36.5273 18.2044 36.6782 17.9822L45.0898 5.59495L45.0898 5.59494L35.3891 17.1069ZM44.8829 4.51279C44.5274 4.27132 44.0423 4.3635 43.8008 4.71968L44.8548 4.55415L44.8829 4.51279C44.8829 4.51279 44.8829 4.51279 44.8829 4.51279Z" fill="#E13838" stroke="#E13838" stroke-width="0.1"/>
<path d="M10.9771 53.0572L10.9771 53.0572L19.3887 40.67L10.9771 53.0572ZM10.9771 53.0572C10.7356 53.413 10.8278 53.8975 11.184 54.1393C11.3177 54.2303 11.4704 54.274 11.6209 54.274C11.87 54.274 12.1153 54.1547 12.2662 53.9325C12.2662 53.9325 12.2662 53.9325 12.2662 53.9324L20.6778 41.5452L20.6778 41.5452C20.9193 41.1894 20.8271 40.7049 20.4709 40.4631L20.4709 40.4631M10.9771 53.0572L20.4709 40.4631M20.4709 40.4631C20.1151 40.2216 19.6303 40.3134 19.3887 40.67L20.4709 40.4631Z" fill="#E13838" stroke="#E13838" stroke-width="0.1"/>
</g>
<defs>
<clipPath id="clip0">
<rect y="0.618164" width="55" height="55" fill="white"/>
</clipPath>
</defs>
</svg>
