<svg width="55" height="55" viewBox="0 0 55 55" fill="none" xmlns="http://www.w3.org/2000/svg">
<g clip-path="url(#clip0)">
<path d="M18.6756 21.3097L18.6756 21.3097C18.992 21.4408 19.1983 21.7497 19.1983 22.0922V36.9074C19.198 37.3751 18.8186 37.7542 18.3512 37.7542C17.8834 37.7542 17.5043 37.3751 17.5043 36.9073V24.1368L16.2662 25.3749C15.9353 25.7058 15.3994 25.7058 15.0688 25.3749C15.0688 25.3749 15.0688 25.3749 15.0688 25.3748L15.0983 25.3454C14.7836 25.0311 14.7836 24.5212 15.0983 24.2069L18.6756 21.3097ZM18.6756 21.3097C18.3583 21.1786 17.9945 21.2514 17.7526 21.4933L15.0688 24.1774L18.6756 21.3097ZM5.5354 53.0789H31.3009C40.184 53.0789 47.4112 45.8517 47.4115 36.9682V13.4921H54.1948C54.6626 13.4921 55.0417 13.1131 55.0417 12.6453V8.45837C55.0417 7.99058 54.6626 7.61153 54.1948 7.61153C53.727 7.61153 53.348 7.99058 53.348 8.45837V11.7984H47.4115V11.2027C47.4115 8.12746 44.9097 5.62566 41.8345 5.62566H32.8859V2.76806C32.8859 2.30027 32.5069 1.92122 32.0391 1.92122H20.7667C20.2989 1.92122 19.9198 2.30027 19.9198 2.76806V5.62566H17.6668C7.90213 5.62566 -0.0416667 13.5698 -0.0416667 23.3341V47.5021C-0.0416667 50.5771 2.46014 53.0789 5.5354 53.0789ZM1.65201 23.3341C1.65201 14.5034 8.8361 7.31934 17.6668 7.31934H41.8345C43.9758 7.31934 45.7179 9.06143 45.7179 11.2027V36.9682C45.7179 44.9177 39.2504 51.3855 31.3009 51.3855H5.5354C3.39411 51.3855 1.65201 49.6434 1.65201 47.5021V23.3341ZM31.1922 3.6149V5.62566H21.6135V3.6149H31.1922ZM6.81518 29.3523C6.81518 38.6544 14.3828 46.222 23.6849 46.222C32.9871 46.222 40.5547 38.6544 40.5547 29.3523C40.5547 20.0501 32.9871 12.4825 23.6849 12.4825C14.3828 12.4825 6.81518 20.0501 6.81518 29.3523ZM8.50885 29.3523C8.50885 20.9841 15.3168 14.1762 23.6849 14.1762C32.0531 14.1762 38.861 20.9841 38.861 29.3523C38.861 37.7204 32.0531 44.5283 23.6849 44.5283C15.3168 44.5283 8.50885 37.7204 8.50885 29.3523ZM26.6712 37.7542H27.7984C30.1297 37.7542 32.027 35.8572 32.027 33.5256V25.1251C32.027 22.7935 30.13 20.8965 27.7984 20.8965H26.6712C24.3396 20.8965 22.4426 22.7935 22.4426 25.1251V33.5256C22.4426 35.8572 24.3396 37.7542 26.6712 37.7542ZM24.1363 25.1251C24.1363 23.7275 25.2735 22.5902 26.6712 22.5902H27.7984C29.196 22.5902 30.3333 23.7275 30.3333 25.1251V33.5256C30.3333 34.9233 29.196 36.0605 27.7984 36.0605H26.6712C25.2735 36.0605 24.1363 34.9233 24.1363 33.5256V25.1251Z" fill="#E13838" stroke="#E13838" stroke-width="0.0833333"/>
</g>
<defs>
<clipPath id="clip0">
<rect width="55" height="55" fill="white"/>
</clipPath>
</defs>
</svg>
